<svg xmlns="http://www.w3.org/2000/svg" style="display: none;">
  <!-- Top Left: Blue Arm with Orange Hand -->
  <symbol id="arm-blue" viewBox="0 0 200 200">
    <path d="M 20 100 Q 40 60, 60 80 Q 80 100, 100 120" 
          stroke="#0066FF" 
          stroke-width="12" 
          fill="none" 
          stroke-linecap="round"/>
    <circle cx="100" cy="120" r="25" fill="#FF8C00" stroke="#000000" stroke-width="2"/>
    <path d="M 90 110 L 95 105 M 105 110 L 110 105 M 100 115 L 105 120" 
          stroke="#FFB84D" 
          stroke-width="2" 
          stroke-linecap="round"/>
  </symbol>
  
  <!-- Top Right: Neural Network -->
  <symbol id="neural-network" viewBox="0 0 300 200">
    <!-- Input Layer (Blue) -->
    <circle cx="50" cy="50" r="15" fill="#0066FF" stroke="#000000" stroke-width="2"/>
    <circle cx="50" cy="100" r="15" fill="#0066FF" stroke="#000000" stroke-width="2"/>
    <circle cx="50" cy="150" r="15" fill="#0066FF" stroke="#000000" stroke-width="2"/>
    
    <!-- Hidden Layer 1 (Orange) -->
    <circle cx="150" cy="40" r="15" fill="#FF8C00" stroke="#000000" stroke-width="2"/>
    <circle cx="150" cy="80" r="15" fill="#FF8C00" stroke="#000000" stroke-width="2"/>
    <circle cx="150" cy="120" r="15" fill="#FF8C00" stroke="#000000" stroke-width="2"/>
    <circle cx="150" cy="160" r="15" fill="#FF8C00" stroke="#000000" stroke-width="2"/>
    
    <!-- Hidden Layer 2 (Red) -->
    <circle cx="230" cy="60" r="15" fill="#FF4444" stroke="#000000" stroke-width="2"/>
    <circle cx="230" cy="100" r="15" fill="#FF4444" stroke="#000000" stroke-width="2"/>
    <circle cx="230" cy="140" r="15" fill="#FF4444" stroke="#000000" stroke-width="2"/>
    
    <!-- Output Node (Black) -->
    <circle cx="280" cy="100" r="18" fill="#000000" stroke="#000000" stroke-width="2"/>
    
    <!-- Connections -->
    <line x1="65" y1="50" x2="135" y2="40" stroke="#666666" stroke-width="1"/>
    <line x1="65" y1="50" x2="135" y2="80" stroke="#666666" stroke-width="1"/>
    <line x1="65" y1="100" x2="135" y2="80" stroke="#666666" stroke-width="1"/>
    <line x1="65" y1="100" x2="135" y2="120" stroke="#666666" stroke-width="1"/>
    <line x1="65" y1="150" x2="135" y2="120" stroke="#666666" stroke-width="1"/>
    <line x1="65" y1="150" x2="135" y2="160" stroke="#666666" stroke-width="1"/>
    <line x1="165" y1="40" x2="215" y2="60" stroke="#666666" stroke-width="1"/>
    <line x1="165" y1="80" x2="215" y2="60" stroke="#666666" stroke-width="1"/>
    <line x1="165" y1="80" x2="215" y2="100" stroke="#666666" stroke-width="1"/>
    <line x1="165" y1="120" x2="215" y2="100" stroke="#666666" stroke-width="1"/>
    <line x1="165" y1="120" x2="215" y2="140" stroke="#666666" stroke-width="1"/>
    <line x1="165" y1="160" x2="215" y2="140" stroke="#666666" stroke-width="1"/>
    <line x1="245" y1="60" x2="262" y2="90" stroke="#666666" stroke-width="1"/>
    <line x1="245" y1="100" x2="262" y2="100" stroke="#666666" stroke-width="1"/>
    <line x1="245" y1="140" x2="262" y2="110" stroke="#666666" stroke-width="1"/>
  </symbol>
  
  <!-- Bottom Left: Stylized Brain -->
  <symbol id="brain" viewBox="0 0 200 200">
    <path d="M 100 20 Q 120 30, 130 50 Q 140 70, 135 90 Q 130 110, 120 130 Q 110 150, 100 160 Q 90 150, 80 130 Q 70 110, 65 90 Q 60 70, 70 50 Q 80 30, 100 20 Z" 
          fill="#0066FF" 
          stroke="#000000" 
          stroke-width="2"/>
    <path d="M 85 60 Q 95 70, 100 85 Q 105 100, 100 115" 
          fill="#FF8C00" 
          stroke="#000000" 
          stroke-width="1.5"/>
    <path d="M 115 60 Q 105 70, 100 85 Q 95 100, 100 115" 
          fill="#FFD700" 
          stroke="#000000" 
          stroke-width="1.5"/>
    <path d="M 90 100 Q 95 105, 100 110 Q 105 105, 110 100" 
          fill="#FFFFFF" 
          stroke="#000000" 
          stroke-width="1"/>
  </symbol>
  
  <!-- Bottom Right: Orange Arm with Paintbrush -->
  <symbol id="arm-orange" viewBox="0 0 200 200">
    <path d="M 180 100 Q 160 60, 140 80 Q 120 100, 100 120" 
          stroke="#FF8C00" 
          stroke-width="12" 
          fill="none" 
          stroke-linecap="round"/>
    <circle cx="100" cy="120" r="25" fill="#FFB84D" stroke="#000000" stroke-width="2"/>
    <!-- Paintbrush -->
    <line x1="85" y1="110" x2="60" y2="90" stroke="#FF4444" stroke-width="8" stroke-linecap="round"/>
    <line x1="60" y2="90" x2="50" y2="85" stroke="#E0E0E0" stroke-width="6" stroke-linecap="round"/>
    <path d="M 50 85 L 45 80 L 50 75 L 55 80 Z" fill="#FFD700" stroke="#000000" stroke-width="1"/>
  </symbol>
</svg>
